HIERARCHY
ROOT Hips
{
	OFFSET 0.000000 89.005402 0.000000
	CHANNELS 6 Xposition Yposition Zposition Xrotation Yrotation Zrotation
	JOINT Spine
	{
		OFFSET 0.116900 10.681000 0.373400
		CHANNELS 3 Xrotation Yrotation Zrotation
		JOINT Spine1
		{
			OFFSET 0.000000 13.840401 0.053500
			CHANNELS 3 Xrotation Yrotation Zrotation
			JOINT Spine2
			{
				OFFSET 0.000000 14.712700 -0.366200
				CHANNELS 3 Xrotation Yrotation Zrotation
				JOINT Neck
				{
					OFFSET 0.000000 35.415497 -3.314200
					CHANNELS 3 Xrotation Yrotation Zrotation
					JOINT Head
					{
						OFFSET 0.000000 16.899200 1.218300
						CHANNELS 3 Xrotation Yrotation Zrotation
						JOINT HeadTop_End
						{
							OFFSET 0.000000 22.206207 2.192500
							CHANNELS 3 Xrotation Yrotation Zrotation
							End Site
							{
								OFFSET 0.000000 22.314178 0.000000
							}
						}
					}
				}
				JOINT LeftShoulder
				{
					OFFSET 12.896400 26.716293 -4.548400
					CHANNELS 3 Xrotation Yrotation Zrotation
					JOINT LeftArm
					{
						OFFSET 19.027000 -4.857010 -1.718400
						CHANNELS 3 Xrotation Yrotation Zrotation
						JOINT LeftForeArm
						{
							OFFSET 24.179897 0.000000 0.000000
							CHANNELS 3 Xrotation Yrotation Zrotation
							JOINT LeftHand
							{
								OFFSET 27.156403 0.000000 0.000000
								CHANNELS 3 Xrotation Yrotation Zrotation
								JOINT LeftHandIndex1
								{
									OFFSET 16.441200 0.000000 0.000000
									CHANNELS 3 Xrotation Yrotation Zrotation
									JOINT LeftHandIndex2
									{
										OFFSET 4.821899 0.000000 0.000000
										CHANNELS 3 Xrotation Yrotation Zrotation
										JOINT LeftHandIndex3
										{
											OFFSET 6.386497 0.000000 0.000000
											CHANNELS 3 Xrotation Yrotation Zrotation
											JOINT LeftHandIndex4
											{
												OFFSET 5.188988 0.000000 0.000000
												CHANNELS 3 Xrotation Yrotation Zrotation
												End Site
												{
													OFFSET -0.178703 5.185913 0.000177
												}
											}
										}
									}
								}
								JOINT LeftHandThumb1
								{
									OFFSET 6.534897 -5.032593 5.900300
									CHANNELS 3 Xrotation Yrotation Zrotation
									JOINT LeftHandThumb2
									{
										OFFSET 3.818176 -2.204422 2.204423
										CHANNELS 3 Xrotation Yrotation Zrotation
										JOINT LeftHandThumb3
										{
											OFFSET 3.252098 -1.877594 1.877601
											CHANNELS 3 Xrotation Yrotation Zrotation
											JOINT LeftHandThumb4
											{
												OFFSET 5.251778 -3.032120 3.032117
												CHANNELS 3 Xrotation Yrotation Zrotation
												End Site
												{
													OFFSET 0.000023 6.780014 0.000000
												}
											}
										}
									}
								}
							}
						}
					}
				}
				JOINT RightShoulder
				{
					OFFSET -12.896300 26.716293 -4.548400
					CHANNELS 3 Xrotation Yrotation Zrotation
					JOINT RightArm
					{
						OFFSET -19.027000 -4.857010 -1.718400
						CHANNELS 3 Xrotation Yrotation Zrotation
						JOINT RightForeArm
						{
							OFFSET -24.179897 0.000000 0.000000
							CHANNELS 3 Xrotation Yrotation Zrotation
							JOINT RightHand
							{
								OFFSET -27.156403 0.000000 0.000000
								CHANNELS 3 Xrotation Yrotation Zrotation
								JOINT RightHandThumb1
								{
									OFFSET -6.591202 -4.852203 5.988100
									CHANNELS 3 Xrotation Yrotation Zrotation
									JOINT RightHandThumb2
									{
										OFFSET -3.818176 -2.204422 2.204423
										CHANNELS 3 Xrotation Yrotation Zrotation
										JOINT RightHandThumb3
										{
											OFFSET -3.252098 -1.877594 1.877601
											CHANNELS 3 Xrotation Yrotation Zrotation
											JOINT RightHandThumb4
											{
												OFFSET -5.251778 -3.032120 3.032117
												CHANNELS 3 Xrotation Yrotation Zrotation
												End Site
												{
													OFFSET -0.000023 6.780014 0.000000
												}
											}
										}
									}
								}
								JOINT RightHandIndex1
								{
									OFFSET -16.029404 0.000000 0.000000
									CHANNELS 3 Xrotation Yrotation Zrotation
									JOINT RightHandIndex2
									{
										OFFSET -5.213303 0.000000 0.000000
										CHANNELS 3 Xrotation Yrotation Zrotation
										JOINT RightHandIndex3
										{
											OFFSET -6.386528 0.000000 0.000000
											CHANNELS 3 Xrotation Yrotation Zrotation
											JOINT RightHandIndex4
											{
												OFFSET -5.189026 0.000000 0.000000
												CHANNELS 3 Xrotation Yrotation Zrotation
												End Site
												{
													OFFSET 0.236702 5.183624 0.001972
												}
											}
										}
									}
								}
							}
						}
					}
				}
			}
		}
	}
	JOINT LeftUpLeg
	{
		OFFSET 14.073000 -7.904099 -1.463000
		CHANNELS 3 Xrotation Yrotation Zrotation
		JOINT LeftLeg
		{
			OFFSET -0.109806 -34.073280 4.093200
			CHANNELS 3 Xrotation Yrotation Zrotation
			JOINT LeftFoot
			{
				OFFSET 0.109806 -29.899420 -6.319000
				CHANNELS 3 Xrotation Yrotation Zrotation
				JOINT LeftToeBase
				{
					OFFSET 1.551100 -14.988700 20.535801
					CHANNELS 3 Xrotation Yrotation Zrotation
					JOINT LeftToe_End
					{
						OFFSET 0.221200 0.570800 13.248301
						CHANNELS 3 Xrotation Yrotation Zrotation
						End Site
						{
							OFFSET 0.000000 13.262435 0.000000
						}
					}
				}
			}
		}
	}
	JOINT RightUpLeg
	{
		OFFSET -13.839300 -7.904099 -1.463000
		CHANNELS 3 Xrotation Yrotation Zrotation
		JOINT RightLeg
		{
			OFFSET 0.109694 -34.073219 4.093300
			CHANNELS 3 Xrotation Yrotation Zrotation
			JOINT RightFoot
			{
				OFFSET -0.109694 -29.899384 -6.319200
				CHANNELS 3 Xrotation Yrotation Zrotation
				JOINT RightToeBase
				{
					OFFSET -1.551100 -14.988700 20.535801
					CHANNELS 3 Xrotation Yrotation Zrotation
					JOINT RightToe_End
					{
						OFFSET -0.221200 0.570900 13.248299
						CHANNELS 3 Xrotation Yrotation Zrotation
						End Site
						{
							OFFSET 0.000000 13.262440 0.000000
						}
					}
				}
			}
		}
	}
}
MOTION
Frames: 4
Frame Time: 0.033333
0.525422 50.574394 5.809189 -31.552619 -2.413654 -0.127341 8.152370 0.930204 -0.698079 16.328368 1.413493 -2.116448 16.328365 1.413493 -2.116448 18.834767 -1.792195 -1.957888 -14.251875 -12.483146 9.728241 -0.000000 0.000000 0.000000 0.763967 3.363748 -12.626032 15.998577 -26.043919 -51.503158 -0.271880 -57.485884 -0.034479 3.461109 19.835588 17.485960 4.506642 9.589948 -30.211802 0.296766 1.134533 -47.340926 -0.000005 0.000002 0.000001 -0.000002 0.000002 0.000006 -8.375652 -11.419719 22.614357 3.041938 -4.465133 15.093842 0.000007 -0.000006 -0.000002 0.000002 -0.000002 0.000001 0.901696 -1.552587 16.836963 6.229015 28.018442 47.494728 2.961484 76.411867 -3.053603 78.952281 24.698367 -29.009589 -4.933609 -3.839422 -10.210311 2.321134 -6.714485 -2.170913 0.000012 0.000004 0.000000 0.000000 0.000001 -0.000000 -3.537919 1.873448 23.721877 0.448637 -1.786185 38.219263 0.000003 -0.000005 0.000005 0.000000 -0.000000 0.000001 -62.053969 -12.530969 18.638731 92.066504 -3.329280 -3.011444 18.963383 -9.443510 -7.400227 -23.533480 -0.341191 3.559267 -0.000001 -0.000001 0.000000 -65.810150 8.689295 -18.473954 87.238455 5.058109 3.466691 25.107314 4.575684 -0.584433 -12.195808 -0.269317 1.897093 -0.000000 0.000000 0.000000 
0.524897 50.623535 5.972546 -31.743372 -2.487401 -0.182496 8.160427 0.860665 -0.697860 16.341702 1.316642 -2.058992 16.341701 1.316642 -2.058991 19.624597 -1.766838 -2.260527 -13.967290 -12.026773 9.482861 0.000000 -0.000000 -0.000000 0.744947 3.533419 -12.241517 16.207650 -26.685085 -51.785712 -0.278794 -56.890046 -0.037450 2.700456 19.413080 18.041311 4.528929 9.681631 -30.073169 0.299765 1.136733 -47.508320 -0.000006 0.000002 0.000006 -0.000001 0.000001 -0.000001 -8.168852 -10.629656 22.529485 3.067196 -4.286268 14.944775 0.000009 -0.000005 -0.000005 0.000002 -0.000004 -0.000003 0.857484 -1.161960 16.363272 6.362622 28.542900 47.182175 2.799139 76.035401 -2.938699 78.345787 24.283532 -29.201965 -5.018930 -3.870909 -10.171471 2.429032 -6.935555 -2.179405 0.000011 0.000001 0.000002 0.000001 -0.000001 0.000000 -3.610209 1.623883 24.107595 0.455170 -1.794271 38.487751 0.000002 -0.000008 0.000001 0.000006 0.000001 0.000001 -61.734255 -12.580828 18.825058 92.175015 -3.460614 -3.031763 18.873672 -9.474658 -7.419173 -23.815845 -0.343881 3.564863 -0.000000 0.000000 0.000000 -65.662543 8.788508 -18.530045 87.182317 5.112503 3.473120 25.796626 4.798245 -0.253306 -13.094806 -0.259635 1.562100 -0.000000 0.000001 -0.000000 
0.468737 50.660873 6.156853 -31.940318 -2.588990 -0.286068 8.131588 0.804525 -0.699803 16.281568 1.273099 -1.973996 16.281569 1.273099 -1.973996 19.866346 -1.710707 -2.235137 -13.689790 -11.490630 9.025780 0.000001 0.000001 -0.000000 0.730970 3.610299 -11.988926 16.424319 -27.034353 -52.063793 -0.281784 -56.382815 -0.038764 2.177549 19.093165 18.344131 4.549951 9.774002 -29.934363 0.302788 1.138887 -47.675755 -0.000004 0.000002 0.000006 0.000001 -0.000004 -0.000002 -7.918360 -9.627333 22.265179 3.092537 -4.106845 14.795839 0.000005 -0.000005 -0.000005 0.000001 0.000006 0.000002 0.822681 -0.788037 16.005360 6.567755 28.984983 46.842376 2.659944 75.753430 -2.848311 78.080277 24.018340 -29.098515 -5.104679 -3.902249 -10.133366 2.536950 -7.156609 -2.187478 0.000012 0.000001 -0.000000 0.000001 0.000001 0.000000 -3.679415 1.373481 24.492495 0.461802 -1.802321 38.756256 0.000003 -0.000008 0.000002 -0.000002 0.000000 0.000001 -61.471819 -12.698330 19.125243 92.403608 -3.467311 -3.049858 18.919656 -9.534989 -7.423260 -24.168315 -0.359786 3.716764 -0.000000 0.000000 -0.000000 -65.676456 9.087288 -18.188445 87.080950 5.040974 3.472416 27.079291 4.910284 0.231167 -14.320079 -0.257412 1.300566 0.000000 0.000001 -0.000000 
0.354740 50.706734 6.277229 -32.148218 -2.690563 -0.387702 8.063557 0.754093 -0.704289 16.143244 1.246102 -1.887070 16.143243 1.246102 -1.887069 19.687037 -1.623445 -1.889961 -13.545153 -10.998154 8.394723 -0.000000 -0.000000 0.000000 0.722334 3.563044 -11.862561 16.704679 -27.123767 -52.210854 -0.280968 -55.973537 -0.038436 1.733072 18.953816 18.459158 4.569486 9.867124 -29.795416 0.305863 1.141059 -47.843160 -0.000003 -0.000001 0.000003 -0.000004 0.000002 0.000001 -7.489766 -7.824931 21.647916 3.117964 -3.926831 14.647074 0.000004 -0.000003 -0.000003 0.000005 -0.000001 0.000002 0.794677 -0.416723 15.749361 6.768334 29.400102 46.540346 2.510630 75.407679 -2.749069 78.061194 23.946877 -28.758771 -5.190913 -3.933407 -10.096117 2.644866 -7.377678 -2.195140 0.000011 0.000003 0.000002 -0.000001 -0.000001 -0.000001 -3.745389 1.122160 24.876541 0.468528 -1.810355 39.024726 0.000005 -0.000004 0.000001 -0.000000 -0.000000 -0.000003 -61.127297 -12.837328 19.477779 92.451262 -3.653420 -3.078451 18.984248 -9.565439 -7.492221 -24.268750 -0.355019 3.657751 -0.000000 -0.000000 -0.000000 -65.591017 9.536650 -17.624803 86.801322 5.118658 3.476225 28.349551 4.962570 0.962516 -15.440566 -0.250678 1.072102 -0.000000 -0.000000 -0.000000 
